<!--?xml version="1.0" standalone="no"?-->
              <svg id="sw-js-blob-svg" viewBox="0 0 100 100" xmlns="http://www.w3.org/2000/svg" version="1.1">
                    <defs> 
                        <linearGradient id="sw-gradient" x1="0" x2="1" y1="1" y2="0">
                            <stop id="stop1" stop-color="rgba(0, 0, 0, 1)" offset="0%"></stop>
                            <stop id="stop2" stop-color="rgba(0, 0, 0, 1)" offset="100%"></stop>
                        </linearGradient>
                    </defs>
                <path fill="none" d="M20.2,-27.8C22.9,-25.8,19.6,-15.5,22.6,-7.1C25.7,1.3,35,7.8,35.2,12.7C35.4,17.6,26.5,20.9,19.1,24.5C11.7,28.2,5.9,32.2,1.3,30.4C-3.3,28.7,-6.6,21.2,-12.5,17C-18.4,12.9,-26.8,12.2,-33,7.4C-39.1,2.6,-42.9,-6.3,-40.1,-12.5C-37.4,-18.7,-28.1,-22.3,-20.3,-22.7C-12.5,-23.1,-6.3,-20.4,1.2,-22.1C8.7,-23.8,17.4,-29.9,20.2,-27.8Z" width="100%" height="100%" transform="translate(50 50)" stroke-width="1" style="transition: all 0.3s ease 0s;" stroke="url(#sw-gradient)"></path>
              </svg>